<svg width="180" height="20" viewBox="0 0 180 20" fill="none" xmlns="http://www.w3.org/2000/svg">
<g clip-path="url(#clip0_58_263)">
<g clip-path="url(#clip1_58_263)">
<path d="M77.6083 10.4361C74.7695 10.4361 72.4695 12.5778 72.4695 15.2194C72.4695 17.8611 74.7695 20.0028 77.6083 20.0028C80.4472 20.0028 82.7472 17.8611 82.7472 15.2194C82.7472 12.5778 80.4472 10.4361 77.6083 10.4361ZM77.6083 17.7778C76 17.7778 74.6917 16.6306 74.6917 15.2167C74.6917 13.8028 76 12.6556 77.6083 12.6556C79.2167 12.6556 80.525 13.8028 80.525 15.2167C80.525 16.6306 79.2167 17.7778 77.6083 17.7778ZM58.9694 12.1694L64.4611 17.1139L62.9917 18.7472L57.3278 13.6472L51.6639 18.7472L50.1944 17.1139L55.6861 12.1694L57.3278 10.6917L58.9694 12.1694ZM58.9722 5.15556V3.35556V3.24167H61.7694V0H63.9667V3.24167V5.43889V10.4944H61.7694V5.43889H58.9722V5.15556ZM81.9583 0H84.1556V9.67222H81.9583V5.60278H79.9194V9.67222H77.7222V0H79.9194V3.40556H81.9583V0ZM177.803 5.75556H175.436V3.55833H177.803V0H180V10.6056H177.803V5.75556ZM28.3833 0H40L28.3833 7.26944V0ZM57.8917 0.336111H48.8889V9.33889H57.8917V0.336111ZM55.7806 7.08611H50.9972V2.58611H55.7806V7.08611ZM13.9611 15.3111H28.3861V20H11.6167V7.26944L0 0H13.9611V15.3111ZM74.5806 9.76944L71.6278 5.04167L68.675 9.76667L66.8111 8.60278L70.3306 2.96944L70.8528 2.13333H67.1306V0.336111H76.1222V2.13333H72.4L72.9222 2.96944L76.4445 8.60556L74.5806 9.76944ZM159.561 0H161.758V18.7472H159.561V8.59445H156.364V6.4H159.561V0ZM152.525 5.09722L157.211 12.5944L155.347 13.7583L151.231 7.16944L147.114 13.7583L145.25 12.5944L149.933 5.09722L150.392 4.36389H145.731V2.16667H150.128V0H152.325V2.16389H156.722V4.36111H152.061L152.5 5.06111L152.531 5.08056L152.522 5.09444L152.525 5.09722ZM140.825 6.98333H143.622V9.18056H140.825V18.8389H138.628V0H140.825V6.98333ZM91.9333 1.775C88.9806 1.775 86.5889 4.16944 86.5889 7.11944C86.5889 10.0694 88.9833 12.4639 91.9333 12.4639C94.8833 12.4639 97.2778 10.0722 97.2778 7.11944C97.2778 4.16667 94.8861 1.775 91.9333 1.775ZM91.9333 10.2139C90.2278 10.2139 88.8389 8.825 88.8389 7.11944C88.8389 5.41389 90.2278 4.025 91.9333 4.025C93.6389 4.025 95.0278 5.41389 95.0278 7.11944C95.0278 8.825 93.6389 10.2139 91.9333 10.2139ZM177.889 11.4417H167.011V18.7472H179.997V11.4417H177.886H177.889ZM177.889 16.4972H169.122V13.6917H177.889V16.4972ZM175.369 10.0278H164.925V3.88611H171.819V2.47778H164.981V0.336111H174.072V5.76111H174.067V5.91667L166.95 5.95833V7.83056H175.364V10.0278H175.369ZM132.753 4.31667L137.725 12.275L135.861 13.4389L131.456 6.39167L127.053 13.4417L125.189 12.2778L130.161 4.31944L130.817 3.26667H125.958V1.06667H136.953V3.26389H132.094L132.731 4.28333L132.761 4.30278L132.753 4.31667ZM100.206 0H102.403V18.8389H100.206V0ZM120.714 6.98333H123.511V9.18056H120.714V18.8389H118.517V0H120.714V6.98333ZM112.233 4.09167L117.344 12.2722L115.481 13.4361L111.075 6.38889L106.672 13.4361L104.808 12.2722L109.919 4.09167V0.963889H112.231V4.09444L112.233 4.09167Z" fill="#262626"/>
</g>
</g>
<defs>
<clipPath id="clip0_58_263">
<rect width="180" height="20" fill="white"/>
</clipPath>
<clipPath id="clip1_58_263">
<rect width="180" height="20" fill="white"/>
</clipPath>
</defs>
</svg>
