<svg width="15" height="14" viewBox="0 0 15 14" fill="none" xmlns="http://www.w3.org/2000/svg">
<path fill-rule="evenodd" clip-rule="evenodd" d="M7.65633 2.81258C7.0507 1.522 5.77305 0.625 4.28125 0.625C2.19724 0.625 0.53125 2.37622 0.53125 4.504C0.53125 5.34921 0.87727 6.11095 1.20207 6.64382C1.36648 6.91352 1.53066 7.13312 1.65423 7.2859C1.71614 7.3624 1.76823 7.42263 1.80554 7.46447C1.82421 7.4854 1.83922 7.50175 1.84994 7.5133L1.86276 7.52688L1.86662 7.531L1.86789 7.53227L7.65625 13.5405L13.4439 7.53295L13.4446 7.53227L13.4459 7.531L13.4497 7.52695L13.4625 7.5133C13.4732 7.50175 13.4882 7.4854 13.5069 7.46447C13.5443 7.42263 13.5963 7.3624 13.6583 7.2859C13.7818 7.13312 13.9461 6.91352 14.1105 6.64382C14.4352 6.11095 14.7812 5.34921 14.7812 4.504C14.7812 2.37546 13.1152 0.625 11.0312 0.625C9.53957 0.625 8.26202 1.52223 7.65633 2.81258Z" fill="black"/>
</svg>
