
<svg width="20" height="19" viewBox="0 0 20 19" xmlns="http://www.w3.org/2000/svg">
  <path fill="red" d="M5.5 2.56C3.48 2.56 1.8 4.26 1.8 6.43c0 .79.33 1.56.7 2.18.18.3.36.54.5.71.07.09.13.15.17.2l.01.01.01.01L10 16.6l6.78-7.04.01-.01.01-.01c.04-.05.1-.11.17-.2.14-.17.32-.41.5-.71.37-.62.7-1.39.7-2.18 0-2.17-1.68-3.87-3.7-3.87-2.02 0-3.7 1.71-3.7 3.87h-1.6c0-2.17-1.68-3.87-3.7-3.87Zm4.5.98C9.07 1.99 7.41.96 5.5.96 2.54.96.2 3.44.2 6.43c0 1.2.49 2.27.94 3.03.23.37.46.67.64.89.09.11.16.19.21.24.03.03.05.06.08.09l8.99 9.2 7.93-8.23.01-.01.01-.01.02-.02.02-.02c.03-.03.05-.06.08-.09.05-.05.12-.13.21-.24.18-.22.41-.52.64-.89.45-.76.94-1.83.94-3.03 0-3-2.34-5.47-5.3-5.47-1.91 0-3.57 1.04-4.5 2.58Z"/>
</svg>
