<svg width="18" height="12" viewBox="0 0 18 12" fill="none" xmlns="http://www.w3.org/2000/svg">
<path d="M3.52612 1.64835C5.15485 0.54396 6.98507 0 9 0C11.0149 0 12.8451 0.54396 14.4739 1.64835C16.1026 2.75275 17.278 4.2033 18 6C17.2948 7.7967 16.1194 9.2637 14.4739 10.3516C12.8451 11.456 11.0149 12 9 12C6.98507 12 5.15485 11.456 3.52612 10.3516C1.89739 9.2473 0.72202 7.7967 0 6C0.72202 4.2033 1.89739 2.73626 3.52612 1.64835ZM6.11194 8.8352C6.91791 9.6264 7.875 10.022 9 10.022C10.125 10.022 11.0821 9.6264 11.8881 8.8352C12.694 8.044 13.097 7.1044 13.097 6C13.097 4.8956 12.694 3.95604 11.8881 3.16483C11.0821 2.37363 10.125 1.97802 9 1.97802C7.875 1.97802 6.91791 2.37363 6.11194 3.16483C5.30597 3.95604 4.90299 4.8956 4.90299 6C4.90299 7.1044 5.30597 8.044 6.11194 8.8352ZM7.2705 4.3022C7.7575 3.84066 8.3284 3.59341 9 3.59341C9.6549 3.59341 10.2425 3.82418 10.7295 4.3022C11.1996 4.7802 11.4515 5.3407 11.4515 6C11.4515 6.6593 11.2164 7.2198 10.7295 7.6978C10.2425 8.1593 9.6549 8.4066 9 8.4066C8.3284 8.4066 7.7575 8.1758 7.2705 7.6978C6.80037 7.2198 6.54851 6.6593 6.54851 6C6.54851 5.3407 6.80037 4.7802 7.2705 4.3022Z" fill="#A0A0A0"/>
</svg>
