<svg width="18" height="17" viewBox="0 0 18 17" fill="none" xmlns="http://www.w3.org/2000/svg">
<path d="M16.7395 0.825084L17.2173 1.33748L1.29514 16.1851L0.817328 15.6727L16.7395 0.825084Z" fill="#A0A0A0" stroke="#A0A0A0"/>
<path d="M3.80384 4.06413L3.80385 4.06414L3.80673 4.06218C5.34903 3.0164 7.08066 2.5 9 2.5C10.7911 2.5 12.4187 2.9497 13.8816 3.85966L12.5196 5.10654C12.4309 5.00453 12.3372 4.90506 12.2384 4.80808L12.2384 4.80802C11.3401 3.92623 10.2577 3.47802 9 3.47802C7.74232 3.47802 6.65993 3.92623 5.76167 4.80802L6.11194 5.16483L5.76167 4.80802C4.86318 5.69005 4.40299 6.75689 4.40299 8C4.40299 9.2431 4.86318 10.31 5.76167 11.192L5.76171 11.192C5.77948 11.2095 5.79734 11.2268 5.81527 11.2439L4.55636 12.3963C4.30205 12.257 4.05216 12.1042 3.80675 11.9378L3.80671 11.9378C2.31584 10.9269 1.23045 9.61674 0.541117 7.99997C1.23121 6.38031 2.31693 5.05731 3.80384 4.06413ZM12.2384 11.192L12.2384 11.192C13.1276 10.319 13.5875 9.26503 13.5969 8.03829L16.0881 5.75774C16.6489 6.42468 17.1061 7.17215 17.4598 8.00212C16.7853 9.6192 15.7005 10.9412 14.1981 11.9345L14.1981 11.9345L14.1933 11.9378C12.6509 12.9836 10.9193 13.5 9 13.5C8.56252 13.5 8.13534 13.4732 7.71843 13.4196L8.70789 12.5138C8.8044 12.5193 8.90176 12.522 9 12.522C10.2577 12.522 11.3401 12.0738 12.2384 11.192ZM9 6.09341C9.52452 6.09341 9.9847 6.27321 10.3761 6.65593C10.4502 6.73154 10.5165 6.8083 10.5755 6.88625L7.75794 9.46548C7.71286 9.4278 7.66817 9.38736 7.62387 9.34403C7.2382 8.95061 7.04851 8.51367 7.04851 8C7.04851 7.48769 7.2372 7.0517 7.62082 6.65908C8.02107 6.28224 8.46947 6.09341 9 6.09341Z" fill="#A0A0A0" stroke="A0A0A0"/>
</svg>
