<svg width="20" height="18" viewBox="0 0 20 18" fill="none" xmlns="http://www.w3.org/2000/svg">
<path fill-rule="evenodd" clip-rule="evenodd" d="M5.3 1.6C3.28502 1.6 1.6 3.30633 1.6 5.472C1.6 6.2591 1.9296 7.03339 2.30447 7.64849C2.48761 7.94889 2.67124 8.19449 2.80805 8.36359C2.87617 8.44779 2.93189 8.51209 2.96908 8.55379C2.98765 8.57459 3.00152 8.58969 3.00992 8.59869L3.0183 8.60769C3.01853 8.60789 3.01815 8.60749 3.0183 8.60769C3.01837 8.60779 3.019 8.60839 3.01905 8.60849C3.01915 8.60859 3.01904 8.60849 3.01905 8.60849L9.8 15.647L16.5808 8.60859L16.5816 8.60779L16.5901 8.59869C16.5985 8.58969 16.6123 8.57459 16.6309 8.55379C16.6681 8.51209 16.7238 8.44779 16.7919 8.36359C16.9287 8.19449 17.1124 7.94889 17.2955 7.64849C17.6704 7.03339 18 6.2591 18 5.472C18 3.3055 16.3151 1.6 14.3 1.6C12.285 1.6 10.6 3.30633 10.6 5.472H9C9 3.3055 7.31508 1.6 5.3 1.6ZM9.8001 2.58178C8.8689 1.03808 7.21209 0 5.3 0C2.34508 0 0 2.48003 0 5.472C0 6.67737 0.49176 7.74869 0.93826 8.48119C1.1658 8.85449 1.39285 9.15819 1.56406 9.36979C1.64994 9.47599 1.72255 9.55999 1.77521 9.61899C1.80156 9.64859 1.82297 9.67189 1.83864 9.68869L1.85773 9.70909L1.86387 9.71549L1.86605 9.71779L9.8 17.9531L17.7327 9.71909L17.7339 9.71779L17.7361 9.71549L17.7422 9.70909L17.7613 9.68869C17.777 9.67189 17.7984 9.64859 17.8248 9.61899C17.8774 9.55999 17.95 9.47599 18.0359 9.36979C18.2071 9.15819 18.4342 8.85449 18.6617 8.48119C19.1082 7.74869 19.6 6.67737 19.6 5.472C19.6 2.47898 17.2548 0 14.3 0C12.388 0 10.7314 1.03831 9.8001 2.58178Z" fill="#A0A0A0"/>
</svg>
