<svg width="10" height="9" viewBox="0 0 10 9" fill="none" xmlns="http://www.w3.org/2000/svg">
<path fill-rule="evenodd" clip-rule="evenodd" d="M4.75 1.4585C4.3465 0.598 3.495 0 2.5 0C1.1105 0 0 1.1675 0 2.586C0 3.1495 0.2305 3.6575 0.447 4.0125C0.565553 4.20611 0.700373 4.38927 0.85 4.56L0.88 4.5925L0.888 4.602L0.8905 4.6045L0.8915 4.6055L4.75 8.61L8.6085 4.605L8.61 4.604L8.6125 4.6015L8.621 4.592L8.6505 4.5595C8.67617 4.5315 8.70983 4.49183 8.7515 4.4405C8.8335 4.339 8.943 4.1925 9.053 4.0125C9.2695 3.6575 9.5 3.1495 9.5 2.586C9.5 1.167 8.3895 0 7 0C6.0055 0 5.154 0.598 4.75 1.4585Z" fill="#5D5D5D" fill-opacity="0.64"/>
</svg>
