<svg width="13" height="16" viewBox="0 0 13 16" fill="none" xmlns="http://www.w3.org/2000/svg">
<path fill-rule="evenodd" clip-rule="evenodd" d="M6.86719 0.5C4.38191 0.5 2.36719 2.51472 2.36719 5V6.5H1.42969C1.11903 6.5 0.867188 6.75185 0.867188 7.0625V14.9375C0.867188 15.2481 1.11903 15.5 1.42969 15.5H12.3047C12.6153 15.5 12.8672 15.2481 12.8672 14.9375V7.0625C12.8672 6.75185 12.6153 6.5 12.3047 6.5H11.3672V5C11.3672 2.51472 9.35246 0.5 6.86719 0.5ZM9.86719 6.5V5C9.86719 3.34314 8.52401 2 6.86719 2C5.21033 2 3.86719 3.34314 3.86719 5V6.5H9.86719ZM7.61719 9.125C7.61719 8.71078 7.28141 8.375 6.86719 8.375C6.45296 8.375 6.11719 8.71078 6.11719 9.125V10.625C6.11719 11.0392 6.45296 11.375 6.86719 11.375C7.28141 11.375 7.61719 11.0392 7.61719 10.625V9.125Z" fill="black"/>
</svg>
