<svg width="35" height="35" viewBox="0 0 35 35" fill="none" xmlns="http://www.w3.org/2000/svg">
<path fill-rule="evenodd" clip-rule="evenodd" d="M15.4 3.66667C8.91986 3.66667 3.66667 8.91986 3.66667 15.4C3.66667 21.8801 8.91986 27.1333 15.4 27.1333C18.6333 27.1333 21.558 25.828 23.6821 23.7112C25.8161 21.5848 27.1333 18.6479 27.1333 15.4C27.1333 8.91986 21.8801 3.66667 15.4 3.66667ZM0 15.4C0 6.89482 6.89482 0 15.4 0C23.9052 0 30.8 6.89482 30.8 15.4C30.8 18.9985 29.564 22.3108 27.4962 24.9321L34.2936 31.7009L31.7064 34.2991L24.9 27.5213C22.2838 29.5741 18.9838 30.8 15.4 30.8C6.89482 30.8 0 23.9052 0 15.4Z" fill="black"/>
</svg>
