<svg width="14" height="17" viewBox="0 0 14 17" fill="none" xmlns="http://www.w3.org/2000/svg">
<path fill-rule="evenodd" clip-rule="evenodd" d="M6.88281 0.75C5.88824 0.75 4.93442 1.14508 4.23116 1.84835C3.70737 2.37214 3.35454 3.03492 3.20856 3.75H1.03431C0.528213 3.75 0.132812 4.15819 0.132812 4.65V15.6091L0.13303 15.6182C0.138707 15.8518 0.234625 16.0741 0.40066 16.2385C0.566688 16.4029 0.789933 16.4966 1.02356 16.4999L1.02893 16.5H12.7313C13.2374 16.5 13.6328 16.0918 13.6328 15.6V10.875H6.88281V9.375H13.6328V4.65C13.6328 4.165 13.236 3.75 12.7313 3.75H10.5571C10.4111 3.03492 10.0582 2.37214 9.53444 1.84835C8.83124 1.14508 7.87739 0.75 6.88281 0.75ZM8.47379 2.90901C8.71334 3.14856 8.89334 3.43657 9.00411 3.75H4.76149C4.87231 3.43657 5.05227 3.14856 5.29182 2.90901C5.71379 2.48705 6.28611 2.25 6.88281 2.25C7.47951 2.25 8.05184 2.48705 8.47379 2.90901Z" fill="black"/>
</svg>
