<svg width="20" height="19" viewBox="0 0 20 19" fill="none" xmlns="http://www.w3.org/2000/svg">
<path fill-rule="evenodd" clip-rule="evenodd" d="M5.5 2C3.603 2 2 3.61 2 5.672C2 6.407 2.31 7.144 2.675 7.744C2.8746 8.0694 3.10248 8.37659 3.356 8.662L3.363 8.67L10 15.559L16.636 8.67L16.644 8.662L16.682 8.621C16.718 8.581 16.7693 8.52 16.836 8.438C16.969 8.274 17.147 8.036 17.325 7.744C17.691 7.144 18 6.407 18 5.672C18 3.609 16.398 2 14.5 2C12.602 2 11 3.61 11 5.672H9C9 3.609 7.398 2 5.5 2ZM10 2.412C9.01 0.96 7.375 0 5.5 0C2.428 0 0 2.577 0 5.672C0 6.93 0.512 8.038 0.967 8.785C1.21959 9.19774 1.50697 9.58816 1.826 9.952L1.892 10.025L1.912 10.047L1.919 10.054L1.922 10.056L10 18.441L18.076 10.058L18.081 10.054L18.087 10.047L18.107 10.025C18.1243 10.007 18.1467 9.98267 18.174 9.952C18.4928 9.58818 18.7798 9.19775 19.032 8.785C19.488 8.038 20 6.93 20 5.672C20 2.576 17.572 0 14.5 0C12.625 0 10.99 0.96 10 2.412Z" fill="white"/>
</svg>
