<svg width="18" height="19" viewBox="0 0 18 19" fill="none" xmlns="http://www.w3.org/2000/svg">
<mask id="path-1-inside-1_1_3720" fill="white">
<path d="M0 9.95996C0 4.9894 4.02944 0.959961 9 0.959961C13.9706 0.959961 18 4.9894 18 9.95996C18 14.9305 13.9706 18.96 9 18.96C4.02944 18.96 0 14.9305 0 9.95996Z"/>
</mask>
<path d="M0 9.95996C0 4.9894 4.02944 0.959961 9 0.959961C13.9706 0.959961 18 4.9894 18 9.95996C18 14.9305 13.9706 18.96 9 18.96C4.02944 18.96 0 14.9305 0 9.95996Z" fill="white"/>
<path d="M9 16.96C5.13401 16.96 2 13.826 2 9.95996H-2C-2 16.0351 2.92487 20.96 9 20.96V16.96ZM16 9.95996C16 13.826 12.866 16.96 9 16.96V20.96C15.0751 20.96 20 16.0351 20 9.95996H16ZM9 2.95996C12.866 2.95996 16 6.09397 16 9.95996H20C20 3.88483 15.0751 -1.04004 9 -1.04004V2.95996ZM9 -1.04004C2.92487 -1.04004 -2 3.88483 -2 9.95996H2C2 6.09397 5.13401 2.95996 9 2.95996V-1.04004Z" fill="#E4E4E4" mask="url(#path-1-inside-1_1_3720)"/>
</svg>
